<svg width="32" height="25" viewBox="0 0 32 25" fill="none" xmlns="http://www.w3.org/2000/svg">
<path d="M28 0H4C1.79375 0 0 1.40129 0 3.12482V17.1865C0 18.91 1.79375 20.3113 4 20.3113H10V24.4126C10 24.8911 10.7 25.1694 11.1938 24.8862L19 20.3113H28C30.2062 20.3113 32 18.91 32 17.1865V3.12482C32 1.40129 30.2062 0 28 0Z" fill="#273644"/>
<path d="M9.50426 6.27273V15H7.65909V8.02415H7.60795L5.60938 9.27699V7.64062L7.76989 6.27273H9.50426ZM15.0004 15.1918C14.2674 15.1889 13.6367 15.0085 13.1083 14.6506C12.5827 14.2926 12.1779 13.7741 11.8938 13.0952C11.6126 12.4162 11.4734 11.5994 11.4762 10.6449C11.4762 9.69318 11.6168 8.8821 11.8981 8.21165C12.1822 7.54119 12.587 7.03125 13.1126 6.68182C13.641 6.32955 14.2702 6.15341 15.0004 6.15341C15.7305 6.15341 16.3583 6.32955 16.8839 6.68182C17.4123 7.03409 17.8185 7.54545 18.1026 8.21591C18.3867 8.88352 18.5273 9.69318 18.5245 10.6449C18.5245 11.6023 18.3825 12.4205 18.0984 13.0994C17.8171 13.7784 17.4137 14.2969 16.8881 14.6548C16.3626 15.0128 15.7333 15.1918 15.0004 15.1918ZM15.0004 13.6619C15.5004 13.6619 15.8995 13.4105 16.1978 12.9077C16.4961 12.4048 16.6438 11.6506 16.641 10.6449C16.641 9.98295 16.5728 9.43182 16.4364 8.99148C16.3029 8.55114 16.1126 8.22017 15.8654 7.99858C15.6211 7.77699 15.3327 7.66619 15.0004 7.66619C14.5032 7.66619 14.1055 7.91477 13.8072 8.41193C13.5089 8.90909 13.3583 9.65341 13.3555 10.6449C13.3555 11.3153 13.4222 11.875 13.5558 12.3239C13.6921 12.7699 13.8839 13.1051 14.131 13.3295C14.3782 13.5511 14.668 13.6619 15.0004 13.6619ZM22.4482 13.6705V7.63636H23.9737V13.6705H22.4482ZM20.1939 11.4162V9.89062H26.228V11.4162H20.1939Z" fill="#F9FAFC"/>
</svg>
